# xmcd
#
# Track frame offsets:
#	150
#	17153
#	33473
#	54695
#	69452
#	86944
#
# Disc length: 1359 seconds
#
# Revision: 0
# Processed by: cddbd v1.5.2PL0 Copyright (c) Steve Scherf et al.
# Submitted via: audiograbber 1.83.01
#
DISCID=4f054d06
DTITLE=el Tumbao de Juana - Pajarillo
DYEAR=2010
DGENRE=Folk
TTITLE0=Pajarillo
TTITLE1=Saco roto
TTITLE2=De lunes a domingo
TTITLE3=Que linda
TTITLE4=La reina
TTITLE5=Pajarillo (bonus track)
EXTD=
EXTT0=
EXTT1=
EXTT2=
EXTT3=
EXTT4=
EXTT5=
PLAYORDER=
